<svg id="visual" viewBox="0 0 900 600" width="900" height="600" xmlns="http://www.w3.org/2000/svg"
  xmlns:xlink="http://www.w3.org/1999/xlink" version="1.1">
  <rect x="0" y="0" width="900" height="600" fill="#272935"></rect>
  <g transform="translate(923.5854927958208 -58.52408948939669)">
    <path
      d="M221.8 -296.6C296.6 -250.9 372.7 -198.4 419.4 -120.7C466 -43.1 483.1 59.7 447.7 138.3C412.3 216.8 324.3 271 240.9 338.7C157.5 406.5 78.8 487.7 -7.5 498.1C-93.8 508.5 -187.7 448 -282.8 384.1C-377.9 320.1 -474.3 252.8 -503.6 163.4C-532.9 74.1 -495.2 -37.3 -437.6 -119.8C-380 -202.4 -302.6 -256.1 -226.3 -301.3C-150.1 -346.6 -75 -383.3 -0.8 -382.2C73.5 -381.1 147 -342.3 221.8 -296.6"
      fill="#BE95F8"></path>
  </g>
</svg>